<svg xmlns="http://www.w3.org/2000/svg" width="140.041" height="36" viewBox="0 0 140.041 36"><g fill="#2f8f95" color="#2f8f95" transform="translate(0 3.9999999999999982) scale(0.2800001)"><svg width="100" height="100" x="0" y="0" viewBox="0 0 100 100"><g display="none"><path stroke="currentColor" stroke-miterlimit="10" d="M-80.782,2.29c0,22.364-20.008,40.482-44.691,40.482 s-44.691-18.118-44.691-40.482c0-22.357,20.008-40.479,44.691-40.479S-80.782-20.067-80.782,2.29z" display="inline"/><polyline stroke="currentColor" stroke-miterlimit="10" points="-178.677 190.445 -32.366 38.593 39.992 79.129 166.084 -27.555 215.031 25.549 215.031 190.445" display="inline"/><polyline stroke="currentColor" stroke-miterlimit="10" points="281.207 -2.821 245.207 -2.821 245.207 -111.973 281.207 -111.973" display="inline"/><polygon stroke="currentColor" stroke-miterlimit="10" points="328.207 -96.198 263.209 -188.517 198.207 -96.198 328.207 -96.198" display="inline"/></g><g><ellipse cx="21.286" cy="38.625" stroke="currentColor" stroke-miterlimit="10" rx="7.313" ry="6.79"/><polyline stroke="currentColor" stroke-miterlimit="10" points="11.846 67.607 11.846 56.37 20.813 61.448 45.228 41.61 66.991 52.847 87.608 33.527 87.608 67.607"/></g><g display="none"><rect width="482" height="20" x="-224" y="210" stroke="currentColor" stroke-miterlimit="10" display="inline"/><rect width="375.811" height="19.707" x="-213.104" y="-98.051" stroke="currentColor" stroke-miterlimit="10" display="inline"/></g><g display="none"><path stroke="currentColor" stroke-miterlimit="10" d="M259.69-116.5h-465.38c-15.083,0-27.31,12.042-27.31,26.896 v321.207c0,14.855,12.227,26.896,27.31,26.896h465.38c15.083,0,27.31-12.041,27.31-26.896V-89.604 C287-104.458,274.773-116.5,259.69-116.5z M252.049,222.337c0,2.114-1.753,3.829-3.913,3.829H-194.04 c-2.16,0-3.912-1.715-3.912-3.829V-75.005c0-2.114,1.752-3.829,3.912-3.829h442.175c2.16,0,3.913,1.714,3.913,3.829V222.337z" display="inline"/><rect width="118.666" height="205.333" x="188.334" y="-178.334" stroke="currentColor" stroke-miterlimit="10" display="inline"/></g><g display="none"><path stroke="currentColor" stroke-miterlimit="10" d="M246.256,19.245v194.69c0,2.13-1.754,3.834-3.914,3.834 h-442.175c-2.16,0-3.912-1.704-3.912-3.834V-82.424c0-2.111,1.752-3.81,3.912-3.81h362.54v-37.554h-374.19 c-15.083,0-27.31,11.997-27.31,26.811V223.22c0,14.784,12.227,26.78,27.31,26.78h465.38c15.084,0,27.311-11.996,27.311-26.78 V19.245H246.256z" display="inline"/></g><g><path stroke="currentColor" stroke-miterlimit="10" d="M90.173,19.25H9.827C7.161,19.25,5,21.757,5,24.849v50.302 c0,3.092,2.161,5.599,4.827,5.599h80.346c2.666,0,4.827-2.507,4.827-5.599V24.849C95,21.757,92.839,19.25,90.173,19.25z M8.6,71.141V25.387h82.8v45.754H8.6z"/></g><g display="none"><g display="inline"><path stroke="currentColor" stroke-miterlimit="10" d="M-169.563-91l6.327-27.405L-44.531-91h150.429L-148.4-149.709 c-15.697-3.625-31.529,6.907-35.365,23.522L-191.889-91H-169.563z"/><path stroke="currentColor" stroke-miterlimit="10" d="M-205,130.865l-14.986-3.46L-205,62.494v-96.702l-41.156,178.269 c-3.837,16.615,5.778,33.02,21.475,36.641l19.682,4.544V130.865z"/><path stroke="currentColor" stroke-miterlimit="10" d="M271.228,224l-3.685,15.961L198.409,224H-37.135l285.537,65.922 c15.696,3.625,31.529-6.905,35.364-23.518L293.555,224H271.228z"/><path stroke="currentColor" stroke-miterlimit="10" d="M324.682-40.49L305-45.034v34.73l19.293,4.454L305,77.717v96.709L346.156-3.846 C349.994-20.461,340.379-36.865,324.682-40.49z"/></g></g></svg></g><path fill="#fff" fill-rule="nonzero" d="M0 17.40L0 0.89L13.34 0.89L13.34 4.85L5.30 4.85L5.30 7.68L12.22 7.68L12.22 11.47L5.30 11.47L5.30 17.40L0 17.40ZM20.62 3.24L15.84 3.24L15.84 0L20.62 0L20.62 3.24ZM20.62 17.40L15.84 17.40L15.84 4.73L20.62 4.73L20.62 17.40ZM37.92 2.35Q37.92 3.82 37.19 4.61Q36.46 5.40 34.99 5.78L34.99 5.78Q35.69 6.31 36.08 7.02Q36.48 7.73 36.48 8.52L36.48 8.52Q36.48 10.54 34.96 11.57Q33.43 12.60 31.15 12.60L31.15 12.60L29.33 12.60Q27.82 12.60 27.82 13.30L27.82 13.30Q27.82 13.63 28.15 13.84Q28.49 14.04 29.33 14.04L29.33 14.04L33.65 14.04Q35.76 14.04 36.84 15.14Q37.92 16.25 37.92 18.10L37.92 18.10Q37.92 19.46 37.20 20.45Q36.48 21.43 35.26 21.94Q34.03 22.44 32.59 22.44L32.59 22.44L25.54 22.44Q24.67 22.44 23.94 22.03Q23.21 21.62 22.78 20.92Q22.34 20.21 22.34 19.34L22.34 19.34Q22.34 18.41 22.92 17.65Q23.50 16.90 24.36 16.51L24.36 16.51Q23.78 16.10 23.45 15.53Q23.11 14.95 23.11 14.28L23.11 14.28Q23.11 13.34 23.81 12.59Q24.50 11.83 25.54 11.57L25.54 11.57Q24.60 10.97 24.05 10.19Q23.50 9.41 23.50 8.54L23.50 8.54Q23.50 6.34 25.28 5.39Q27.07 4.44 30.02 4.44L30.02 4.44Q31.32 4.44 32.11 4.58L32.11 4.58Q33.29 3.84 33.64 3.23Q33.98 2.62 33.98 2.35L33.98 2.35L37.92 2.35ZM29.98 6.94Q29.18 6.94 28.68 7.34Q28.18 7.75 28.18 8.52L28.18 8.52Q28.18 9.31 28.64 9.71Q29.11 10.10 29.98 10.10L29.98 10.10Q30.84 10.10 31.33 9.71Q31.82 9.31 31.82 8.52L31.82 8.52Q31.82 7.73 31.33 7.33Q30.84 6.94 29.98 6.94L29.98 6.94ZM28.13 17.40Q27.58 17.40 27.23 17.70Q26.88 18.00 26.88 18.55L26.88 18.55Q26.88 19.10 27.24 19.44Q27.60 19.78 28.13 19.78L28.13 19.78L31.87 19.78Q32.40 19.78 32.77 19.45Q33.14 19.13 33.14 18.58L33.14 18.58Q33.14 18.02 32.78 17.71Q32.42 17.40 31.87 17.40L31.87 17.40L28.13 17.40ZM52.78 17.40L48.86 17.40L48.55 15.48Q47.81 16.51 46.60 17.10Q45.38 17.69 44.04 17.69L44.04 17.69Q41.83 17.69 40.73 16.46Q39.62 15.24 39.62 12.94L39.62 12.94L39.62 4.73L44.40 4.73L44.40 12.36Q44.40 13.18 44.82 13.67Q45.24 14.16 46.01 14.16L46.01 14.16Q46.90 14.16 47.45 13.58Q48 13.01 48 12.17L48 12.17L48 4.73L52.78 4.73L52.78 17.40ZM63.38 4.42Q63.94 4.42 64.37 4.55Q64.80 4.68 64.80 4.70L64.80 4.70L64.80 8.71L63.26 8.71Q61.78 8.71 61.12 9.48Q60.46 10.25 60.46 11.76L60.46 11.76L60.46 17.40L55.68 17.40L55.68 4.73L59.59 4.73L59.90 6.65Q60.34 5.54 61.27 4.98Q62.21 4.42 63.38 4.42L63.38 4.42ZM71.28 3.24L66.50 3.24L66.50 0L71.28 0L71.28 3.24ZM71.28 17.40L66.50 17.40L66.50 4.73L71.28 4.73L71.28 17.40ZM83.06 4.44Q85.27 4.44 86.38 5.66Q87.48 6.89 87.48 9.19L87.48 9.19L87.48 17.40L82.70 17.40L82.70 9.77Q82.70 8.95 82.28 8.46Q81.86 7.97 81.10 7.97L81.10 7.97Q80.21 7.97 79.66 8.54Q79.10 9.12 79.10 9.96L79.10 9.96L79.10 17.40L74.33 17.40L74.33 4.73L78.24 4.73L78.55 6.65Q79.30 5.64 80.51 5.04Q81.72 4.44 83.06 4.44L83.06 4.44ZM96.89 4.44Q100.37 4.44 102.20 6.07Q104.04 7.70 104.04 11.06L104.04 11.06L104.04 11.88L94.54 11.88Q94.54 13.25 95.15 13.94Q95.76 14.64 97.08 14.64L97.08 14.64Q98.28 14.64 98.84 14.14Q99.41 13.63 99.41 12.79L99.41 12.79L104.04 12.79Q104.04 15.10 102.29 16.39Q100.54 17.69 97.18 17.69L97.18 17.69Q93.65 17.69 91.70 16.04Q89.76 14.40 89.76 11.06L89.76 11.06Q89.76 7.80 91.66 6.12Q93.55 4.44 96.89 4.44L96.89 4.44ZM97.08 7.49Q94.82 7.49 94.56 9.62L94.56 9.62L99.22 9.62Q99.22 8.64 98.65 8.06Q98.09 7.49 97.08 7.49L97.08 7.49Z" transform="translate(36, 9.3)"/></svg>